<?xml version="1.0" standalone="no"?>
<!DOCTYPE svg PUBLIC "-//W3C//DTD SVG 20010904//EN"
 "http://www.w3.org/TR/2001/REC-SVG-20010904/DTD/svg10.dtd">
<svg version="1.0" xmlns="http://www.w3.org/2000/svg"
 width="500.000000pt" height="500.000000pt" viewBox="0 0 500.000000 500.000000"
 preserveAspectRatio="xMidYMid meet">
<metadata>
Created by potrace 1.14, written by Peter Selinger 2001-2017
</metadata>
<g transform="translate(0.000000,500.000000) scale(0.100000,-0.100000)"
fill="#000000" stroke="none">
<path d="M4310 4476 c-120 -35 -269 -119 -385 -217 -69 -59 -250 -241 -314
-316 -181 -213 -395 -538 -546 -828 -252 -485 -459 -1077 -520 -1480 -3 -22
-7 -47 -10 -55 -2 -8 -6 -41 -9 -72 -14 -137 -18 -173 -22 -177 -2 -2 -4 16
-5 40 -1 66 -19 208 -40 309 -5 25 -11 60 -14 78 -21 130 -128 489 -213 717
-65 175 -287 644 -356 754 -14 22 -26 43 -26 46 0 7 -61 105 -156 251 -325
501 -703 858 -1005 949 -34 10 -84 15 -134 14 -70 -2 -88 -6 -150 -38 -108
-56 -175 -156 -220 -327 -21 -82 -29 -169 -29 -324 -1 -191 17 -361 53 -520 5
-25 13 -61 16 -80 32 -191 191 -670 297 -899 22 -47 49 -106 60 -131 51 -111
161 -326 218 -426 60 -103 185 -307 202 -329 5 -5 49 -66 100 -135 50 -69 94
-127 97 -130 4 -3 17 -18 30 -35 73 -95 232 -261 343 -356 160 -138 347 -233
483 -246 33 -3 62 -6 65 -6 18 -4 92 19 133 40 114 57 205 209 233 388 3 22 8
47 9 55 2 8 4 28 4 44 1 41 9 29 15 -24 32 -252 114 -404 256 -472 55 -27 76
-32 140 -32 83 0 198 30 265 69 22 12 58 33 80 45 35 19 101 66 169 120 51 39
281 274 343 350 274 332 520 750 716 1215 41 99 87 214 102 255 15 41 30 84
35 95 57 131 172 585 199 785 34 251 34 534 1 650 -5 17 -9 33 -9 35 0 3 -7
31 -16 62 -71 244 -258 355 -485 289z"/>
</g>
</svg>
