<?xml version="1.0" encoding="UTF-8"?>
<svg xmlns="http://www.w3.org/2000/svg" xmlns:xlink="http://www.w3.org/1999/xlink" viewBox="0 0 50 50" width="50px" height="50px">
<g id="surface621915">
<path style=" stroke:none;fill-rule:nonzero;fill:rgb(40.000001%,40.000001%,40.000001%);fill-opacity:1;" d="M 47.160156 21.222656 L 41.25 20.253906 C 40.902344 19.070312 40.429688 17.929688 39.839844 16.851562 L 43.289062 11.933594 C 43.566406 11.535156 43.519531 10.996094 43.175781 10.652344 L 39.289062 6.765625 C 38.941406 6.417969 38.394531 6.371094 37.996094 6.660156 L 33.152344 10.140625 C 32.066406 9.539062 30.914062 9.0625 29.722656 8.714844 L 28.691406 2.828125 C 28.605469 2.351562 28.191406 2 27.707031 2 L 22.207031 2 C 21.714844 2 21.296875 2.355469 21.21875 2.839844 L 20.261719 8.691406 C 19.0625 9.039062 17.910156 9.511719 16.824219 10.105469 L 11.996094 6.65625 C 11.597656 6.371094 11.054688 6.414062 10.707031 6.761719 L 6.820312 10.648438 C 6.476562 10.992188 6.429688 11.53125 6.707031 11.929688 L 10.105469 16.789062 C 9.503906 17.886719 9.019531 19.046875 8.667969 20.25 L 2.839844 21.222656 C 2.355469 21.300781 2.003906 21.71875 2.003906 22.207031 L 2.003906 27.707031 C 2.003906 28.191406 2.351562 28.609375 2.828125 28.691406 L 8.65625 29.726562 C 9.007812 30.929688 9.488281 32.089844 10.097656 33.1875 L 6.65625 38 C 6.371094 38.398438 6.414062 38.941406 6.761719 39.289062 L 10.648438 43.179688 C 10.992188 43.523438 11.53125 43.570312 11.929688 43.292969 L 16.800781 39.882812 C 17.894531 40.480469 19.046875 40.960938 20.246094 41.304688 L 21.222656 47.164062 C 21.300781 47.648438 21.71875 48 22.207031 48 L 27.707031 48 C 28.191406 48 28.605469 47.652344 28.691406 47.175781 L 29.734375 41.285156 C 30.933594 40.933594 32.082031 40.453125 33.164062 39.851562 L 38.070312 43.289062 C 38.46875 43.570312 39.007812 43.523438 39.351562 43.179688 L 43.238281 39.289062 C 43.585938 38.941406 43.632812 38.394531 43.34375 37.996094 L 39.847656 33.140625 C 40.4375 32.058594 40.910156 30.917969 41.253906 29.730469 L 47.171875 28.691406 C 47.648438 28.609375 47.996094 28.191406 47.996094 27.707031 L 47.996094 22.207031 C 48 21.71875 47.644531 21.300781 47.160156 21.222656 Z M 25 32 C 21.132812 32 18 28.867188 18 25 C 18 21.132812 21.132812 18 25 18 C 28.867188 18 32 21.132812 32 25 C 32 28.867188 28.867188 32 25 32 Z M 25 32 "/>
</g>
</svg>
