<?xml version="1.0" encoding="utf-8"?>
<!-- Generator: Adobe Adobe Illustrator 24.2.0, SVG Export Plug-In . SVG Version: 6.00 Build 0)  -->
<svg version="1.1" id="Layer_1" xmlns="http://www.w3.org/2000/svg" xmlns:xlink="http://www.w3.org/1999/xlink" x="0px" y="0px"
	 width="144px" height="144px" viewBox="0 0 144 144" style="enable-background:new 0 0 144 144;" xml:space="preserve">
<style type="text/css">
	.st0{fill:none;stroke:#383838;stroke-width:6;stroke-linejoin:round;stroke-miterlimit:10;}
	.st1{fill:#896283;stroke:#383838;stroke-width:6;stroke-linejoin:round;stroke-miterlimit:10;}
	.st2{fill:none;stroke:#000000;stroke-width:6;stroke-miterlimit:10;}
	.st3{fill:#7A7A7A;stroke:#383838;stroke-width:6;stroke-miterlimit:10;}
	.st4{fill:#896283;stroke:#383838;stroke-width:6;stroke-miterlimit:10;}
	.st5{fill:none;stroke:#383838;stroke-width:6;stroke-miterlimit:10;}
	.st6{fill:#F4E2EA;stroke:#383838;stroke-width:6;stroke-miterlimit:10;}
	.st7{fill:none;stroke:#383838;stroke-width:6;stroke-linecap:round;stroke-miterlimit:10;}
	.st8{fill:none;stroke:#383838;stroke-width:3;stroke-miterlimit:10;}
	.st9{fill:#896283;stroke:#383838;stroke-width:3;stroke-miterlimit:10;}
	.st10{fill:none;stroke:#383838;stroke-width:9;stroke-miterlimit:10;}
	.st11{fill:#7A7A7A;stroke:#383838;stroke-width:9;stroke-miterlimit:10;}
	.st12{fill:none;stroke:#383838;stroke-width:9;stroke-linecap:round;stroke-linejoin:round;stroke-miterlimit:10;}
	.st13{fill:#7A7A7A;stroke:#383838;stroke-width:9;stroke-linecap:round;stroke-linejoin:round;stroke-miterlimit:10;}
	.st14{fill:none;stroke:#383838;stroke-width:6;stroke-linecap:round;stroke-linejoin:round;stroke-miterlimit:10;}
	.st15{fill:#7A7A7A;stroke:#383838;stroke-width:6;stroke-linecap:round;stroke-linejoin:round;stroke-miterlimit:10;}
	.st16{fill:#896283;stroke:#383838;stroke-width:6;stroke-linecap:round;stroke-linejoin:round;stroke-miterlimit:10;}
	.st17{fill:#383838;}
	.st18{fill:#896283;}
	.st19{fill:#FFFFFF;stroke:#383838;stroke-width:6;stroke-linecap:round;stroke-linejoin:round;stroke-miterlimit:10;}
	.st20{fill:#383838;stroke:#383838;stroke-width:3;stroke-linecap:round;stroke-linejoin:round;stroke-miterlimit:10;}
	.st21{fill:#896283;stroke:#383838;stroke-width:3;stroke-linecap:round;stroke-linejoin:round;stroke-miterlimit:10;}
	.st22{fill:#DFC8D2;stroke:#383838;stroke-width:6;stroke-miterlimit:10;}
</style>
<ellipse class="st4" cx="72" cy="72" rx="50" ry="49.5"/>
<ellipse class="st5" cx="72" cy="72" rx="50" ry="49.5"/>
<path class="st5" d="M100.82,30.26c5.09-5.47,10.28-10.85,15.56-16.14"/>
<path class="st7" d="M96.95,115.83c2.44,1.09,4.66,2.75,7.28,3.29c4.73,0.98,9.99-1.83,14.31,0.32c2.58,1.29,4.1,4.11,4.59,6.95"/>
<path class="st5" d="M107.53,36.09c7.07-5.75,14.42-11.18,22-16.27"/>
<path class="st5" d="M23.8,80.36c22.87-1.84,44.24-11.97,63.98-23.67c7.93-4.7,16.19-10.29,19.33-18.95"/>
<path class="st5" d="M27.94,90.37c16.82-2.71,33.95-5.52,49.18-13.17c14.78-7.42,26.98-19,38.95-30.4"/>
<path class="st5" d="M51.96,27.55c-0.45,14.3,4.09,28.72,12.67,40.17"/>
<path class="st5" d="M52.45,73.26c-7.55-10.84-11.86-23.9-12.33-37.32c0-0.88,0-1.77,0-2.65"/>
<path class="st5" d="M38.67,77.35c-4.66-9.36-7.41-19.67-7.52-29.88c-0.14-1.2-0.66-2.35-1.47-3.24"/>
<path class="st5" d="M54.83,48.43c1.9-5.29,4.09-10.53,7.22-15.14c3.13-4.61,7.28-8.59,12.3-10.72"/>
<path class="st5" d="M61.11,60.79c4.39-14.42,13.36-27.4,25.29-36.61"/>
<path class="st5" d="M69.98,66.41C74.5,51.45,83.29,37.9,94.97,27.9"/>
<path class="st5" d="M87.77,56.69c3.14-9.33,7.43-18.8,15.05-24.35"/>
<path class="st5" d="M92.18,67.72c0.79,19.14-4.55,38.51-14.92,54.15"/>
<path class="st5" d="M103.23,58.56c1.55,6.74,1.23,13.76,0.48,20.63c-1.36,12.53-4.1,24.91-8.16,36.85"/>
<path class="st5" d="M111.33,52.82c2.18,17.71,3.68,36.24-2.98,52.87"/>
<path class="st5" d="M78.81,77.98c2.42,2.08,4.92,4.22,7.96,5.2c1.7,0.55,3.5,0.72,5.29,0.84"/>
<path class="st5" d="M68.06,82.98c2.8,3.1,6.46,5.26,10.07,7.38c3.59,2.11,7.53,4.3,11.66,3.79"/>
<path class="st5" d="M55.76,86.97c3.74,4.81,8.83,8.46,14.29,11.16c5.46,2.7,11.33,4.5,17.21,6.1"/>
<path class="st5" d="M43.18,89.52c2.5,3.45,5.34,6.64,8.48,9.53c2.89,2.66,6.05,5.07,9.58,6.81c2.33,1.14,4.79,1.98,7.24,2.82
	c4.96,1.69,10.01,3.4,15.25,3.6"/>
<path class="st5" d="M33.18,89.97c9.52,15.64,25.47,27.22,43.29,31.44"/>
<ellipse class="st9" cx="118.76" cy="10.42" rx="6.65" ry="6.61"/>
<ellipse class="st9" cx="133.51" cy="17.04" rx="6.65" ry="6.61"/>
</svg>
