<?xml version="1.0" encoding="utf-8"?>
<!-- Generator: Adobe Adobe Illustrator 24.2.0, SVG Export Plug-In . SVG Version: 6.00 Build 0)  -->
<svg version="1.1" id="Layer_1" xmlns="http://www.w3.org/2000/svg" xmlns:xlink="http://www.w3.org/1999/xlink" x="0px" y="0px"
	 width="144px" height="144px" viewBox="0 0 144 144" style="enable-background:new 0 0 144 144;" xml:space="preserve">
<style type="text/css">
	.st0{fill:none;stroke:#383838;stroke-width:6;stroke-linejoin:round;stroke-miterlimit:10;}
	.st1{fill:#896283;stroke:#383838;stroke-width:6;stroke-linejoin:round;stroke-miterlimit:10;}
	.st2{fill:none;stroke:#000000;stroke-width:6;stroke-miterlimit:10;}
	.st3{fill:#7A7A7A;stroke:#383838;stroke-width:6;stroke-miterlimit:10;}
	.st4{fill:#896283;stroke:#383838;stroke-width:6;stroke-miterlimit:10;}
	.st5{fill:none;stroke:#383838;stroke-width:6;stroke-miterlimit:10;}
	.st6{fill:#F4E2EA;stroke:#383838;stroke-width:6;stroke-miterlimit:10;}
	.st7{fill:none;stroke:#383838;stroke-width:6;stroke-linecap:round;stroke-miterlimit:10;}
	.st8{fill:none;stroke:#383838;stroke-width:3;stroke-miterlimit:10;}
	.st9{fill:#896283;stroke:#383838;stroke-width:3;stroke-miterlimit:10;}
	.st10{fill:none;stroke:#383838;stroke-width:9;stroke-miterlimit:10;}
	.st11{fill:#7A7A7A;stroke:#383838;stroke-width:9;stroke-miterlimit:10;}
	.st12{fill:none;stroke:#383838;stroke-width:9;stroke-linecap:round;stroke-linejoin:round;stroke-miterlimit:10;}
	.st13{fill:#7A7A7A;stroke:#383838;stroke-width:9;stroke-linecap:round;stroke-linejoin:round;stroke-miterlimit:10;}
	.st14{fill:none;stroke:#383838;stroke-width:6;stroke-linecap:round;stroke-linejoin:round;stroke-miterlimit:10;}
	.st15{fill:#7A7A7A;stroke:#383838;stroke-width:6;stroke-linecap:round;stroke-linejoin:round;stroke-miterlimit:10;}
	.st16{fill:#896283;stroke:#383838;stroke-width:6;stroke-linecap:round;stroke-linejoin:round;stroke-miterlimit:10;}
	.st17{fill:#383838;}
	.st18{fill:#896283;}
	.st19{fill:#FFFFFF;stroke:#383838;stroke-width:6;stroke-linecap:round;stroke-linejoin:round;stroke-miterlimit:10;}
	.st20{fill:#383838;stroke:#383838;stroke-width:3;stroke-linecap:round;stroke-linejoin:round;stroke-miterlimit:10;}
	.st21{fill:#896283;stroke:#383838;stroke-width:3;stroke-linecap:round;stroke-linejoin:round;stroke-miterlimit:10;}
	.st22{fill:#DFC8D2;stroke:#383838;stroke-width:6;stroke-miterlimit:10;}
</style>
<ellipse transform="matrix(0.8535 -0.5211 0.5211 0.8535 -5.0673 23.3367)" class="st9" cx="38.97" cy="20.68" rx="6.01" ry="5.53"/>
<ellipse transform="matrix(0.8984 -0.4392 0.4392 0.8984 -9.5799 15.5146)" class="st9" cx="28.74" cy="28.46" rx="6.14" ry="5.63"/>
<line class="st16" x1="33.32" y1="34.03" x2="91.67" y2="112.07"/>
<line class="st16" x1="42.9" y1="26.78" x2="95.81" y2="109.08"/>
<rect x="45.36" y="68.8" class="st16" width="61.9" height="44.34"/>
<line class="st16" x1="89.33" y1="68.8" x2="98.87" y2="34.03"/>
<path class="st21" d="M97.81,35.31c-2.56,0.02-5.11,0.56-7.54,0.88c0.29-2.01,1.42-3.9,3.07-5.14c1.65-1.24,3.82-1.83,5.9-1.6
	c0.35,0.04,0.7,0.1,1,0.28c0.44,0.25,0.71,0.71,0.9,1.17C101.47,31.69,101.63,32.54,97.81,35.31z"/>
<line class="st16" x1="89.33" y1="68.8" x2="112.06" y2="43.07"/>
<path class="st21" d="M111.68,44.6c1.75,1.58,3.04,3.51,4.44,5.22c1.56-1.56,2.44-3.55,2.38-5.41c-0.05-1.87-1.04-3.6-2.67-4.71
	c-0.27-0.19-0.58-0.36-0.94-0.42c-0.52-0.09-1.11,0.06-1.64,0.25C112.33,39.86,111.46,40.35,111.68,44.6z"/>
</svg>
