<svg id="Capa_1" enable-background="new 0 0 511.012 511.012" height="512" viewBox="0 0 511.012 511.012" width="512" xmlns="http://www.w3.org/2000/svg" xmlns:xlink="http://www.w3.org/1999/xlink"><linearGradient id="SVGID_1_" gradientUnits="userSpaceOnUse" x1="366.516" x2="366.516" y1="47.501" y2="463.501"><stop offset=".00000036422" stop-color="#ffffff" id="id_108"></stop><stop offset="1" stop-color="#ffffff" id="id_109"></stop></linearGradient><linearGradient id="SVGID_2_" gradientUnits="userSpaceOnUse" x1="255.506" x2="255.506" y1=".001" y2="511.011"><stop offset=".00000011981" stop-color="#383838" id="id_110"></stop><stop offset="1" stop-color="#383838" id="id_111"></stop></linearGradient><g id="Filled_1_"><g fill="#fff"><path d="m96.696 230.772h192v80h-192z" transform="matrix(-.866 -.5 .5 -.866 224.189 601.616)" id="id_101"></path><path d="m90.03 257.686 165.332 95.455-8.981 50.848c-14.527 82.243-106.358 125.048-178.685 83.29-72.327-41.758-81.172-142.688-17.211-196.39z" id="id_102"></path><path d="m130.03 188.404 165.332 95.455 39.545-33.202c63.961-53.702 55.116-154.632-17.211-196.39-72.327-41.758-164.158 1.047-178.685 83.29z" id="id_103"></path><path d="m276.516 463.501h180v40h-180z" id="id_104"></path><path d="m316.516 7.501h100v40h-100z" id="id_105"></path></g><path d="m473.509 463.501h-213.986c-17.706 0-31.561-15.25-29.867-32.871l34.236-356c1.48-15.385 14.408-27.129 29.867-27.129h145.514c15.459 0 28.387 11.743 29.867 27.129l34.236 356c1.694 17.621-12.161 32.871-29.867 32.871z" fill="url(#SVGID_1_)" id="id_106"></path><path d="m510.841 429.912-34.236-356c-1.859-19.333-17.908-33.911-37.332-33.911h-15.257v-40h-115v40h-3.428c-35.456-14.512-75.158-12.288-109.185 6.196-31.458 17.088-53.897 46.055-62.689 80.432-8.17.268-23.603-1.199-33.094-14.487-3.351-4.691-3.856-11.954-4.441-20.364-.817-11.737-1.742-25.039-10.519-37.578-14.583-20.834-52.33-22.15-53.929-22.196l-.438 14.994c8.818.272 33.566 3.643 42.079 15.804 6.39 9.129 7.128 19.748 7.842 30.017.68 9.784 1.384 19.901 7.199 28.042 12.169 17.037 30.523 20.489 42.266 20.748l-7.528 42.618-40.178 69.591-37.311 31.327c-32.386 27.191-48.843 66.946-45.151 109.072s26.813 78.413 63.435 99.557c19.768 11.413 41.621 17.238 63.725 17.237 11.391 0 22.851-1.548 34.122-4.674 28.357-7.866 52.674-24.749 69.585-48.069.13.148.252.301.385.447 7.093 7.808 17.212 12.286 27.762 12.286h9.493v40h195v-40h9.493c10.55 0 20.668-4.478 27.762-12.286 7.089-7.807 10.577-18.305 9.568-28.803zm-495.28-35.955c32.909 17.23 69.025 25.836 105.157 25.836 36.012 0 72.036-8.549 104.908-25.601l-3.435 35.719c-.065.68-.11 1.36-.138 2.04-61.806 26.042-132.209 27.28-194.391 3.353-6.534-12.603-10.673-26.56-12.101-41.347zm214.581-46.717-2.78 28.906c-65.621 37.976-146.535 38.248-212.192.494.617-11.797 3.04-23.236 7.157-34.007 2.908 1.912 5.873 3.749 8.88 5.485 27.68 15.981 58.605 23.892 89.49 23.892 34.981 0 69.905-10.163 99.965-30.243zm-83.745-208.38c.92-5.21 2.192-10.301 3.787-15.247 25.629 13.357 53.472 20.203 81.991 20.203 5.846 0 11.723-.292 17.613-.869l-3.18 33.07c-35.582 2.373-71.078-4.271-103.357-19.348zm99.646 199.727c3.487.265 6.987.414 10.473.414 36.975 0 72.443-15.034 98.27-41.435 10.602 6.029 21.556 11.363 32.793 15.972-32.89 38.55-80.113 60.464-131.063 60.464-4.592 0-9.217-.204-13.824-.571zm10.473-14.586c-3.008 0-6.028-.123-9.037-.344l3.352-34.854c1.896.123 3.793.198 5.685.198 20.807 0 40.535-7.259 56.285-20.534 9.129 7.605 18.731 14.66 28.758 21.102-22.774 21.978-53.287 34.432-85.043 34.432zm0-50c-1.414 0-2.832-.055-4.249-.137l6.272-65.223c12.352 18.179 26.744 34.895 42.84 49.799-12.743 10.076-28.396 15.561-44.863 15.561zm-115.957-102.089c28.992 12.921 60.281 19.583 91.951 19.583 4.209 0 8.426-.132 12.645-.368l-5.019 52.186-101.807-58.778zm100.697 216.451c5.085.411 10.191.638 15.26.638 29.751 0 58.22-6.796 84.617-20.199 23.541-11.953 44.626-29.059 61.28-49.661 11.855 4.112 23.974 7.443 36.275 9.971-41.777 59.623-109.073 94.889-182.171 94.889-6.185 0-12.418-.27-18.612-.784zm19.631-204.129 6.972-72.499c11.297 40.155 33.119 76.917 63.701 106.477 40.819 39.454 93.946 62.85 150.232 66.319l3.388 35.225c-92.314-3.865-177.48-55.171-224.293-135.522zm148.448-129.233c1.387 16.506 7.351 32.066 17.465 45.38 10.213 13.442 24.321 23.755 40.114 29.452l3.595 37.381c-53.209-11.542-92.899-57.662-96.255-112.213zm-50.106 0c3.464 63.22 50.408 116.542 112.779 127.805l3.453 35.907c-83.147-10.165-147.627-79.825-151.274-163.712h35.042zm102.445 20.346 3.614 37.581c-22.54-10.813-38.222-32.888-40.863-57.927h14.847c11.656 0 21.287 8.747 22.402 20.346zm-137.658-60.346h85v25h-85zm-14.84 40c1.783 44.945 19.55 87.509 50.503 120.562 31.051 33.159 72.484 53.739 117.249 58.403l3.408 35.433c-109.476-7.833-196.799-93.946-205.589-203.978 3.998-6.314 11.029-10.421 19.013-10.421h15.416zm-105.614 4.377c21.497-11.678 45.551-16.004 68.952-12.838-8.862 6.069-14.982 15.88-16.087 27.372l-.461 4.795c-23.709 4.833-48.077 2.208-70.052-7.476 5.442-4.446 11.336-8.424 17.648-11.853zm-29.358 22.908c18.285 9.119 38.231 13.789 58.397 13.789 7.286 0 14.599-.624 21.873-1.848l-3.219 33.476c-33.227 3.834-66.028-2.385-95.493-18.089 4.775-9.993 10.984-19.192 18.442-27.328zm-41.902 116.09 106.256 61.347-6.838 71.107-131.918-76.162zm23.112 105.72c-30.86 9.553-64.61 6-92.845-10.302-.763-.441-1.519-.894-2.272-1.352l30.531-25.634zm-106.848-1.329c2.123 1.395 4.294 2.742 6.504 4.018 20.21 11.668 42.919 17.557 65.71 17.557 17.503 0 35.055-3.478 51.557-10.474l33.682 19.446c-50.965 30.781-115.388 31.793-167.312 1.814-3.399-1.962-6.734-4.068-9.986-6.27 5.219-9.486 11.869-18.265 19.845-26.091zm22.88 178.017c-11.595-6.694-21.647-15.116-29.934-24.872 25.528 7.721 51.917 11.634 78.791 11.634 2.485 0 4.975-.033 7.468-.1 31.554-.844 62.315-6.982 91.649-18.254-33.368 46.268-97.56 60.698-147.974 31.592zm188.077-24.783c-6.424 0-12.34-2.618-16.659-7.373-2.733-3.008-4.549-6.572-5.361-10.402 6.331.502 12.695.775 19.013.775 40.801 0 81.074-10.569 116.465-30.565 32.868-18.57 61.073-44.956 81.874-76.475 10.503 1.539 21.111 2.493 31.772 2.858l1.041 10.824c-31.393 50.141-78.769 89.237-133.773 110.358zm189.493 40h-165v-25h165zm41.152-47.373c-4.319 4.754-10.235 7.373-16.659 7.373h-83.397c39.335-20.772 73.688-50.63 99.816-86.858l5.982 62.204c.614 6.392-1.425 12.529-5.742 17.281z" fill="url(#SVGID_2_)" id="id_107"></path></g></svg>